<svg xmlns="http://www.w3.org/2000/svg" viewBox="0 0 17.19 18.52"><defs><style>.cls-1{isolation:isolate;}.cls-2{fill:#00aeef;}.cls-3{fill:none;}.cls-4{fill:#fff;}</style></defs><g id="Layer_2" data-name="Layer 2"><g id="Layer_1-2" data-name="Layer 1"><g class="cls-1"><path class="cls-2" d="M7.53,11.22l-.08,0,.11.06A.41.41,0,0,1,7.53,11.22Z"/><path class="cls-2" d="M9.74,6.29a2.56,2.56,0,0,0-.56.15.07.07,0,0,0-.07,0,4.07,4.07,0,0,0-2.65,3.86,3.57,3.57,0,0,0,.1.87.19.19,0,0,0,0,.08,2.76,2.76,0,0,0,3.17,2.17A4,4,0,0,0,13,9.4,2.88,2.88,0,0,0,9.74,6.29Zm-2.29,5,.08,0a2.92,2.92,0,0,1-.18-1A2.9,2.9,0,0,1,9.67,7.26a2.9,2.9,0,0,1,.18,1,2.88,2.88,0,0,1-2.32,2.93.41.41,0,0,0,0,.08Z"/><path class="cls-3" d="M3.62,11.19h0v0S3.61,11.19,3.62,11.19Z"/><path class="cls-3" d="M15.93,10.76a1.06,1.06,0,0,1,.25,1.29c-.11.18-.21.4-.33.65-.23.5-.56,1.2-1,1.37a.62.62,0,0,1-.24.08,2.46,2.46,0,0,1-.91-.14l-.34-.09h-.17a1.64,1.64,0,0,0-.84.49,1.77,1.77,0,0,1-.37.27,1.07,1.07,0,0,0-.48.71l-.13.9a1.21,1.21,0,0,1-1,1L9,17.53a.85.85,0,0,1-1-.76L8,16.13l0-.05-.09-.24a1.07,1.07,0,0,0-.78-.65,1.3,1.3,0,0,1-.36-.2.83.83,0,0,0-.49-.09A.62.62,0,0,0,6,15l-.64.34-.15.08a.9.9,0,0,1-.34.11A.81.81,0,0,1,4,15.14c-.08-.16-.2-.35-.32-.55-.26-.42-.62-1-.51-1.45s.43-.74.76-1.06l.28-.3a1.68,1.68,0,0,0,.22-1.14,1.43,1.43,0,0,1,0-.46.81.81,0,0,0-.27-.72L4,9.29c-.33-.23-.73-.53-.77-.95s.25-1,.5-1.46A5.72,5.72,0,0,0,4,6.22a1.18,1.18,0,0,1,.86-.65,1,1,0,0,1,.35,0l.84.22a1,1,0,0,0,.17,0,1.87,1.87,0,0,0,.84-.49,1.4,1.4,0,0,1,.32-.25C7.9,4.81,8,4.19,8,3.78a2.67,2.67,0,0,1,.05-.35,1.21,1.21,0,0,1,1-1l.24,0,.38-.07L10,2.25a1.44,1.44,0,0,1,1.12.14.27.27,0,0,1,.08.1.86.86,0,0,1,.19.37c0,.2.09.44.12.65a2.51,2.51,0,0,0,.05.31.74.74,0,0,0,.53.59,1.31,1.31,0,0,1,.31.16,1.24,1.24,0,0,0,.84.24l.24-.06.78-.42a.78.78,0,0,1,.34-.12.81.81,0,0,1,.85.41l.71,1.22a1.2,1.2,0,0,1-.23,1.39l-.7.73A1.64,1.64,0,0,0,15,9.09a1.43,1.43,0,0,1,0,.46.8.8,0,0,0,.28.73Z"/><path class="cls-2" d="M16.5,9.94l-.6-.44a2.43,2.43,0,0,0,0-.6,1.29,1.29,0,0,0-.05-.35l.64-.66a2.25,2.25,0,0,0,.44-2.63L16.24,4a1.58,1.58,0,0,0-.65-.63L13.35,2.19a1.65,1.65,0,0,0-1-.18l-.22.05a1.24,1.24,0,0,0-.39-.48,1,1,0,0,0-.31-.2l.07,0L9.19.16A2.37,2.37,0,0,0,7.78.05L7.34.12l-.4.07H6.77A2.3,2.3,0,0,0,4.92,2.11a2.34,2.34,0,0,0-.06.44A2.87,2.87,0,0,1,4.78,3a3.53,3.53,0,0,0-.48.36,1.78,1.78,0,0,0-.25.26l-.77-.2a1.63,1.63,0,0,0-.66,0A2.27,2.27,0,0,0,1,4.66a4.45,4.45,0,0,1-.29.58A3.37,3.37,0,0,0,0,7.4a2.18,2.18,0,0,0,1.1,1.48L1.3,9a2.35,2.35,0,0,0,0,.59,1.1,1.1,0,0,0,.05.36l-.22.21A3.1,3.1,0,0,0,.05,11.84,2.81,2.81,0,0,0,.67,14a5.21,5.21,0,0,1,.29.49,1.58,1.58,0,0,0,.61.62l2.28,1.24c-.07,0-.13-.1-.2-.15a1.66,1.66,0,0,0,1.23.33l.22-.06a1.64,1.64,0,0,0,.63.65L8,18.28A1.66,1.66,0,0,0,9,18.5l1.41-.2a2.33,2.33,0,0,0,1.86-2l.12-.84a2.18,2.18,0,0,0,.49-.37,1.25,1.25,0,0,0,.26-.25l.26.07a3.19,3.19,0,0,0,1.25.17,1.1,1.1,0,0,0,.51-.19c.71-.28,1.12-1.17,1.45-1.89.1-.21.19-.39.29-.57A2,2,0,0,0,16.5,9.94ZM3.61,11.17s0,0,0,0h0Zm12.57.88c-.11.18-.21.4-.33.65-.23.5-.56,1.2-1,1.37a.62.62,0,0,1-.24.08,2.46,2.46,0,0,1-.91-.14l-.34-.09h-.17a1.64,1.64,0,0,0-.84.49,1.77,1.77,0,0,1-.37.27,1.07,1.07,0,0,0-.48.71l-.13.9a1.21,1.21,0,0,1-1,1L9,17.53a.85.85,0,0,1-1-.76L8,16.13l0-.05-.09-.24a1.07,1.07,0,0,0-.78-.65,1.3,1.3,0,0,1-.36-.2.83.83,0,0,0-.49-.09A.62.62,0,0,0,6,15l-.64.34-.15.08a.9.9,0,0,1-.34.11A.81.81,0,0,1,4,15.14c-.08-.16-.2-.35-.32-.55-.26-.42-.62-1-.51-1.45s.43-.74.76-1.06l.28-.3a1.68,1.68,0,0,0,.22-1.14,1.43,1.43,0,0,1,0-.46.81.81,0,0,0-.27-.72L4,9.29c-.33-.23-.73-.53-.77-.95s.25-1,.5-1.46A5.72,5.72,0,0,0,4,6.22a1.18,1.18,0,0,1,.86-.65,1,1,0,0,1,.35,0l.84.22a1,1,0,0,0,.17,0,1.87,1.87,0,0,0,.84-.49,1.4,1.4,0,0,1,.32-.25C7.9,4.81,8,4.19,8,3.78a2.67,2.67,0,0,1,.05-.35,1.21,1.21,0,0,1,1-1l.24,0,.38-.07L10,2.25a1.44,1.44,0,0,1,1.12.14.27.27,0,0,1,.08.1.86.86,0,0,1,.19.37c0,.2.09.44.12.65a2.51,2.51,0,0,0,.05.31.74.74,0,0,0,.53.59,1.31,1.31,0,0,1,.31.16,1.24,1.24,0,0,0,.84.24l.24-.06.78-.42a.78.78,0,0,1,.34-.12.81.81,0,0,1,.85.41l.71,1.22a1.2,1.2,0,0,1-.23,1.39l-.7.73A1.64,1.64,0,0,0,15,9.09a1.43,1.43,0,0,1,0,.46.8.8,0,0,0,.28.73l.64.48A1.06,1.06,0,0,1,16.18,12.05Z"/><path class="cls-3" d="M9.74,6.3a4,4,0,0,0-3.28,4,2.88,2.88,0,0,0,3.27,3.12,4.05,4.05,0,0,0,3.3-4A2.87,2.87,0,0,0,9.74,6.3Z"/><path class="cls-4" d="M15.3,10.29A.8.8,0,0,1,15,9.56a1.79,1.79,0,0,0,0-.46A1.56,1.56,0,0,1,15.25,8l.69-.73a1.2,1.2,0,0,0,.23-1.39l-.7-1.21a.86.86,0,0,0-1.19-.3l-.79.42a1.05,1.05,0,0,1-.24.06,1.21,1.21,0,0,1-.83-.24,1,1,0,0,0-.31-.15.76.76,0,0,1-.54-.59c0-.1,0-.21-.05-.32s-.06-.42-.11-.62v0h0a.85.85,0,0,0-.18-.37s-.05-.08-.09-.1A1.47,1.47,0,0,0,10,2.26l-.36.05-.38.07L9,2.4a1.22,1.22,0,0,0-.95,1c0,.14,0,.24-.06.35,0,.41-.11,1-.61,1.3a1.57,1.57,0,0,0-.32.24,1.75,1.75,0,0,1-.83.49H6.09L5.24,5.6a.66.66,0,0,0-.34,0A1.14,1.14,0,0,0,4,6.22c-.07.17-.2.4-.33.66-.25.48-.6,1.13-.51,1.46s.45.72.78.95l.22.17a.79.79,0,0,1,.27.72,1.79,1.79,0,0,0,0,.46,1.56,1.56,0,0,1-.22,1.14c-.12.14-.2.22-.28.3-.33.32-.73.72-.75,1.06a2.2,2.2,0,0,0,.51,1.45c.12.2.24.39.32.55a.8.8,0,0,0,.81.39h0a1.06,1.06,0,0,0,.34-.12l.14-.07h0L6,15a.8.8,0,0,1,.26-.09.77.77,0,0,1,.49.1,1.57,1.57,0,0,0,.36.19,1.1,1.1,0,0,1,.79.65l.08.25,0,0,.1.65a.85.85,0,0,0,1,.75l1.41-.2a1.21,1.21,0,0,0,1-1l.14-.9a1,1,0,0,1,.47-.7,2,2,0,0,0,.38-.28,1.75,1.75,0,0,1,.83-.49h.17l.35.09a2.23,2.23,0,0,0,.9.14.62.62,0,0,0,.24-.08c.41-.17.73-.86,1-1.37.12-.24.23-.47.33-.65a1,1,0,0,0-.24-1.28ZM9.73,13.45a2.88,2.88,0,0,1-3.27-3.12,4,4,0,0,1,3.28-4A2.87,2.87,0,0,1,13,9.4,4.05,4.05,0,0,1,9.73,13.45Z"/></g></g></g></svg>