<svg width="17" height="17" viewBox="0 0 17 17" fill="none" xmlns="http://www.w3.org/2000/svg">
<path fill-rule="evenodd" clip-rule="evenodd" d="M7.67212 5.06573e-08C6.88444 5.06573e-08 6.21272 0.5695 6.08302 1.34601L5.93012 2.26683C5.91294 2.36991 5.83134 2.49017 5.67501 2.56576C5.38068 2.70724 5.09754 2.87092 4.82806 3.05537C4.68547 3.15415 4.54116 3.1636 4.44152 3.12667L3.56794 2.79854C3.21081 2.66474 2.8178 2.66201 2.45885 2.79084C2.0999 2.91967 1.79831 3.17169 1.60776 3.50204L0.815787 4.87382C0.625172 5.20397 0.55785 5.59104 0.625797 5.96617C0.693744 6.34129 0.892555 6.68016 1.18686 6.92247L1.9084 7.51688C1.99001 7.58388 2.05443 7.71359 2.04068 7.88624C2.01621 8.21191 2.01621 8.53895 2.04068 8.86461C2.05357 9.03641 1.99001 9.16697 1.90926 9.23397L1.18686 9.82838C0.892555 10.0707 0.693744 10.4096 0.625797 10.7847C0.55785 11.1598 0.625172 11.5469 0.815787 11.877L1.60776 13.2488C1.79844 13.579 2.10009 13.8309 2.45903 13.9595C2.81797 14.0882 3.21091 14.0853 3.56794 13.9515L4.44324 13.6233C4.54202 13.5864 4.68633 13.5967 4.82977 13.6938C5.09777 13.8776 5.38038 14.0417 5.67586 14.1834C5.8322 14.259 5.9138 14.3792 5.93098 14.484L6.08388 15.404C6.21358 16.1805 6.8853 16.75 7.67298 16.75H9.25693C10.0437 16.75 10.7163 16.1805 10.846 15.404L10.9989 14.4832C11.0161 14.3801 11.0969 14.2598 11.254 14.1834C11.5495 14.0417 11.8321 13.8776 12.1001 13.6938C12.2436 13.5958 12.3879 13.5864 12.4867 13.6233L13.3628 13.9515C13.7197 14.0848 14.1124 14.0873 14.4709 13.9585C14.8295 13.8297 15.1308 13.5779 15.3213 13.248L16.1141 11.8762C16.3047 11.546 16.3721 11.159 16.3041 10.7838C16.2362 10.4087 16.0374 10.0698 15.743 9.82753L15.0215 9.23312C14.9399 9.16612 14.8755 9.03641 14.8892 8.86376C14.9137 8.53809 14.9137 8.21105 14.8892 7.88538C14.8755 7.71359 14.9399 7.58303 15.0206 7.51603L15.7422 6.92161C16.3503 6.42169 16.5075 5.55585 16.1141 4.87296L15.3221 3.50118C15.1315 3.17098 14.8298 2.91914 14.4709 2.79048C14.1119 2.66181 13.719 2.66467 13.362 2.79854L12.4858 3.12667C12.3879 3.1636 12.2436 3.15329 12.1001 3.05537C11.8309 2.87095 11.5481 2.70727 11.254 2.56576C11.0969 2.49103 11.0161 2.37077 10.9989 2.26683L10.8452 1.34601C10.7825 0.969838 10.5884 0.628095 10.2974 0.381614C10.0064 0.135132 9.63742 -9.55526e-05 9.25607 5.06573e-08H7.67212ZM8.46409 11.5962C9.3184 11.5962 10.1377 11.2568 10.7418 10.6527C11.3459 10.0486 11.6852 9.2293 11.6852 8.375C11.6852 7.5207 11.3459 6.70138 10.7418 6.0973C10.1377 5.49322 9.3184 5.15385 8.46409 5.15385C7.60979 5.15385 6.79048 5.49322 6.1864 6.0973C5.58231 6.70138 5.24294 7.5207 5.24294 8.375C5.24294 9.2293 5.58231 10.0486 6.1864 10.6527C6.79048 11.2568 7.60979 11.5962 8.46409 11.5962Z" fill="white"/>
</svg>
