<?xml version="1.0" standalone="no"?>
<!DOCTYPE svg PUBLIC "-//W3C//DTD SVG 20010904//EN"
 "http://www.w3.org/TR/2001/REC-SVG-20010904/DTD/svg10.dtd">
<svg version="1.0" xmlns="http://www.w3.org/2000/svg"
 width="360.000000pt" height="360.000000pt" viewBox="0 0 360.000000 360.000000"
 preserveAspectRatio="xMidYMid meet">
<metadata>
Created by potrace 1.14, written by Peter Selinger 2001-2017
</metadata>
<g transform="translate(0.000000,360.000000) scale(0.100000,-0.100000)"
fill="#000000" stroke="none">
<path d="M1524 3072 c-37 -6 -104 -45 -134 -79 -36 -40 -53 -82 -69 -178 -7
-38 -14 -77 -17 -87 -5 -17 -174 -118 -198 -118 -8 0 -50 14 -93 31 -164 64
-284 28 -358 -108 -11 -21 -40 -71 -64 -111 -58 -99 -75 -152 -68 -212 9 -77
40 -123 127 -196 l80 -66 1 -86 c2 -148 7 -136 -104 -226 -74 -60 -102 -116
-102 -201 0 -67 3 -76 51 -160 29 -50 61 -107 72 -128 48 -92 125 -145 215
-151 40 -2 73 5 142 30 50 19 95 34 102 34 23 0 192 -102 197 -119 5 -18 13
-59 21 -111 17 -106 71 -184 147 -215 62 -26 339 -28 410 -4 100 34 152 116
162 259 l7 85 -178 0 -178 0 -5 199 -5 199 -42 4 c-110 9 -237 74 -314 161
-99 113 -140 268 -109 420 40 195 232 363 428 375 l42 2 0 380 0 381 -73 -1
c-40 0 -82 -1 -93 -3z"/>
<path d="M1850 2097 l0 -982 603 0 602 0 0 173 c1 166 0 172 -20 173 -11 0
-199 1 -417 1 l-398 1 0 238 0 239 348 0 348 0 0 175 0 175 -348 0 -348 0 0
220 0 220 405 0 405 0 0 175 0 175 -590 0 -590 0 0 -983z"/>
</g>
</svg>
