<svg xmlns="http://www.w3.org/2000/svg" viewBox="0 0 17.19 18.51"><defs><style>.cls-1{isolation:isolate;}.cls-2{fill:#00aeef;}.cls-3{fill:#fff;}</style></defs><g id="Layer_2" data-name="Layer 2"><g id="Layer_1-2" data-name="Layer 1"><g class="cls-1"><path class="cls-2" d="M14.89,14.07l-2.28-1.24c.4-.17.73-.86,1-1.37.11-.24.23-.47.32-.64l2.28,1.24c-.09.17-.21.4-.32.64C15.62,13.21,15.29,13.9,14.89,14.07Z"/><path class="cls-2" d="M16.17,12.06l-2.28-1.24a1,1,0,0,0-.23-1.29l2.27,1.24A1.05,1.05,0,0,1,16.17,12.06Z"/><path class="cls-2" d="M13.74,14l-2.28-1.24a3,3,0,0,0,.92.14.65.65,0,0,0,.23-.09l2.28,1.24a.63.63,0,0,1-.24.09A3,3,0,0,1,13.74,14Z"/><path class="cls-2" d="M13.4,13.93l-2.28-1.24.34.09L13.74,14Z"/><polygon class="cls-2" points="15.94 10.77 13.66 9.53 13.01 9.04 15.29 10.28 15.94 10.77"/><polygon class="cls-2" points="13.58 7.32 15.86 8.56 15.86 8.56 13.58 7.32 13.58 7.32"/><path class="cls-2" d="M12.4,14.42l-2.28-1.24a1.71,1.71,0,0,1,.83-.49h.17l2.28,1.24h-.17A1.71,1.71,0,0,0,12.4,14.42Z"/><path class="cls-2" d="M15.29,10.28,13,9a.79.79,0,0,1-.27-.72L15,9.56A.79.79,0,0,0,15.29,10.28Z"/><path class="cls-2" d="M12,14.7,9.74,13.46a2.07,2.07,0,0,0,.38-.28l2.28,1.24A2.07,2.07,0,0,1,12,14.7Z"/><path class="cls-2" d="M15,9.56,12.74,8.32a3.61,3.61,0,0,0,0-.46L15,9.1A3.61,3.61,0,0,1,15,9.56Z"/><polygon class="cls-2" points="11.41 16.31 9.13 15.07 9.27 14.17 11.55 15.41 11.41 16.31"/><path class="cls-2" d="M10.43,17.34,8.15,16.1a1.21,1.21,0,0,0,1-1l2.28,1.24A1.21,1.21,0,0,1,10.43,17.34Z"/><path class="cls-2" d="M11.55,15.41,9.27,14.17a1,1,0,0,1,.47-.71L12,14.7A1,1,0,0,0,11.55,15.41Z"/><polygon class="cls-2" points="15.23 7.96 12.96 6.72 13.65 6 15.93 7.24 15.23 7.96"/><path class="cls-2" d="M15,9.1,12.75,7.86A1.56,1.56,0,0,1,13,6.72L15.24,8A1.56,1.56,0,0,0,15,9.1Z"/><path class="cls-2" d="M15.93,7.24,13.65,6a1.19,1.19,0,0,0,.24-1.39l2.28,1.24A1.19,1.19,0,0,1,15.93,7.24Z"/><path class="cls-3" d="M10.15,10.33l2.28,1.24a1.37,1.37,0,0,1-.13.2L10,10.53A1.37,1.37,0,0,0,10.15,10.33Z"/><path class="cls-3" d="M9.8,10.84a3.46,3.46,0,0,0,.22-.31l1.14.62,1.14.62a3.46,3.46,0,0,1-.22.31l-1.21-.66Z"/><path class="cls-3" d="M10.15,10.33a4.48,4.48,0,0,0,.44-1.06l2.28,1.24a4.66,4.66,0,0,1-.44,1.06Z"/><path class="cls-3" d="M9.8,10.84l2.28,1.24-.19.21-.55-.3-.29-.16-.15-.08-.3-.16-.15-.08-.84-.46Z"/><polygon class="cls-2" points="9.02 17.53 6.74 16.29 8.15 16.09 10.43 17.34 9.02 17.53"/><path class="cls-3" d="M10.59,9.27l0-.1,2.27,1.24a.36.36,0,0,1,0,.1Z"/><path class="cls-3" d="M10.74,8.17,13,9.41a3.42,3.42,0,0,1-.12,1L10.62,9.17A4.27,4.27,0,0,0,10.74,8.17Z"/><polygon class="cls-2" points="16.17 5.84 13.89 4.61 13.19 3.38 15.47 4.62 16.17 5.84"/><path class="cls-2" d="M8.49,17.44,6.21,16.2a.79.79,0,0,0,.53.09L9,17.53A.79.79,0,0,1,8.49,17.44Z"/><path class="cls-2" d="M12.87,3.07l2.27,1.24a.76.76,0,0,1,.33.31L13.19,3.38A.79.79,0,0,0,12.87,3.07Z"/><path class="cls-3" d="M8.49,17.44,6.21,16.2a.9.9,0,0,1-.45-.66L8,16.78A.9.9,0,0,0,8.49,17.44Z"/><path class="cls-3" d="M7.44,12.21a3.71,3.71,0,0,0,2.17-1.16l.27.15,2,1.09a3.74,3.74,0,0,1-2.16,1.16L7.46,12.21l1.14.62,1.13.62h0Z"/><polygon class="cls-3" points="8.04 16.78 5.76 15.54 5.67 14.89 7.95 16.13 8.04 16.78"/><path class="cls-3" d="M10.74,8.17a3.59,3.59,0,0,0-.49-1.84l2.28,1.24A3.49,3.49,0,0,1,13,9.41Z"/><path class="cls-3" d="M12.87,3.07l2.27,1.24a.84.84,0,0,0-.54-.1,1.07,1.07,0,0,0-.33.11L12,3.08A1.07,1.07,0,0,1,12.32,3,.88.88,0,0,1,12.87,3.07Z"/><polygon class="cls-3" points="7.95 16.13 5.67 14.89 5.61 14.6 7.89 15.84 7.95 16.13"/><path class="cls-3" d="M10.15,6.18l2.28,1.24a1.3,1.3,0,0,1,.1.15L10.25,6.33Z"/><path class="cls-3" d="M10.15,6.18A1.33,1.33,0,0,0,10,6l2.28,1.24a1.33,1.33,0,0,1,.14.19L11.11,6.7l-.48-.26-.06,0-.19-.1-.12-.06Z"/><polygon class="cls-3" points="13.48 4.75 11.2 3.51 11.99 3.08 14.27 4.32 13.48 4.75"/><path class="cls-3" d="M9.81,5.77,12.09,7a2.09,2.09,0,0,1,.2.22L10,6A2.09,2.09,0,0,0,9.81,5.77Z"/><path class="cls-2" d="M8,18.32,5.73,17.08a1.71,1.71,0,0,1-.84-1.26c-.06-.37-.09-.62-.12-.79l2.28,1.24c0,.17.06.42.12.79A1.71,1.71,0,0,0,8,18.32Z"/><path class="cls-2" d="M13.34,2.19l2.28,1.24a1.6,1.6,0,0,0-1-.18,1.93,1.93,0,0,0-.66.23L11.68,2.24A1.81,1.81,0,0,1,12.33,2,1.59,1.59,0,0,1,13.34,2.19Z"/><path class="cls-2" d="M4.71,15,7,16.22l.06.05L4.77,15Z"/><path class="cls-3" d="M5.17,14.1l2.28,1.24a.85.85,0,0,1,.44.5L5.61,14.6A.85.85,0,0,0,5.17,14.1Z"/><polygon class="cls-2" points="13.25 3.86 10.97 2.62 11.68 2.24 13.95 3.48 13.25 3.86"/><path class="cls-2" d="M8.8,6.24l2.28,1.24a2.25,2.25,0,0,1,1.05,2,2.9,2.9,0,0,1-2.4,3L7.45,11.25a2.9,2.9,0,0,0,2.4-3A2.25,2.25,0,0,0,8.8,6.24Z"/><path class="cls-3" d="M9.81,5.77a2.28,2.28,0,0,0-.56-.4l2.28,1.24a2.48,2.48,0,0,1,.56.4L10.15,6A2.27,2.27,0,0,1,9.81,5.77Z"/><path class="cls-3" d="M12.58,4.67,10.3,3.43a1,1,0,0,0,.67.14l.23-.06,2.28,1.24-.23.06A1,1,0,0,1,12.58,4.67Z"/><path class="cls-2" d="M13,3.78,10.76,2.54a.4.4,0,0,0,.21.08l2.28,1.24A.4.4,0,0,1,13,3.78Z"/><path class="cls-3" d="M5.67,11.91a3,3,0,0,0,1.77.3l2.28,1.24a3,3,0,0,1-1.78-.3Z"/><path class="cls-2" d="M6.88,15.09,4.6,13.85l.23.1a2.52,2.52,0,0,1,.34.15l2.28,1.24-.34-.15Z"/><path class="cls-2" d="M8.4,12.27,6.12,11a2.22,2.22,0,0,0,1.33.22l2.28,1.24A2.22,2.22,0,0,1,8.4,12.27Z"/><path class="cls-3" d="M6.88,15.09,4.6,13.85a.55.55,0,0,1-.14-.09L6.74,15A.55.55,0,0,0,6.88,15.09Z"/><path class="cls-2" d="M12.58,4.67,10.3,3.43l-.17-.1,2.28,1.24Z"/><path class="cls-2" d="M4.45,13.75,6.73,15a.81.81,0,0,0-.48-.09A.73.73,0,0,0,6,15L3.72,13.74A.73.73,0,0,1,4,13.66.81.81,0,0,1,4.45,13.75Z"/><path class="cls-3" d="M4.45,13.75,6.73,15h0L4.46,13.76Z"/><path class="cls-2" d="M6.39,16,4.11,14.73,4,14.64l2.28,1.24Z"/><path class="cls-2" d="M10,3.25l2.28,1.24.13.08L10.13,3.33Z"/><path class="cls-3" d="M10,3.25l2.28,1.24-.18-.07L9.82,3.18Z"/><path class="cls-2" d="M10.45,2.36,12.73,3.6a1.34,1.34,0,0,0-.3-.12L10.15,2.24A1.34,1.34,0,0,1,10.45,2.36Z"/><path class="cls-3" d="M12,4.35,9.67,3.11a.69.69,0,0,0,.15.07L12.1,4.42A.69.69,0,0,1,12,4.35Z"/><path class="cls-2" d="M12,4.35,9.67,3.11a.69.69,0,0,1-.38-.52l2.28,1.24A.67.67,0,0,0,12,4.35Z"/><polygon class="cls-2" points="5.21 15.41 2.93 14.18 3.72 13.74 6 14.98 5.21 15.41"/><path class="cls-2" d="M9.25,5.37l2.28,1.24A2.92,2.92,0,0,0,9.74,6.3L7.46,5.06A2.92,2.92,0,0,1,9.25,5.37Z"/><path class="cls-2" d="M4.32,15.43,2,14.19a.88.88,0,0,0,.56.1,1.07,1.07,0,0,0,.33-.11l2.28,1.24a1.07,1.07,0,0,1-.33.11A.88.88,0,0,1,4.32,15.43Z"/><path class="cls-2" d="M11.57,3.83,9.29,2.59c0-.09,0-.2,0-.31-.06-.44-.13-1-.39-1.13l2.28,1.24c.26.16.33.69.39,1.13C11.54,3.63,11.55,3.74,11.57,3.83Z"/><path class="cls-2" d="M8.75,1.07,11,2.31l.1.08L8.85,1.15A.39.39,0,0,0,8.75,1.07Z"/><path class="cls-3" d="M4.32,15.43,2,14.19a.71.71,0,0,1-.29-.28L4,15.15A.71.71,0,0,0,4.32,15.43Z"/><path class="cls-2" d="M3.86,16.31,1.58,15.07A1.46,1.46,0,0,1,1,14.46L3.24,15.7A1.46,1.46,0,0,0,3.86,16.31Z"/><path class="cls-3" d="M4,15.15,1.75,13.91a4.23,4.23,0,0,0-.32-.55L3.71,14.6C3.83,14.8,4,15,4,15.15Z"/><path class="cls-2" d="M9.74,6.3A2.87,2.87,0,0,1,13,9.41a4,4,0,0,1-3.27,4,2.88,2.88,0,0,1-3.28-3.12A4,4,0,0,1,9.74,6.3Zm0,6.19a2.9,2.9,0,0,0,2.4-3A2.06,2.06,0,0,0,9.74,7.26,2.86,2.86,0,0,0,7.35,10.2a2.07,2.07,0,0,0,2.38,2.29"/><path class="cls-2" d="M7.94,13.14,5.66,11.9A3.11,3.11,0,0,1,4.18,9.09a4,4,0,0,1,3.28-4L9.74,6.3a4,4,0,0,0-3.28,4A3.11,3.11,0,0,0,7.94,13.14Z"/><path class="cls-3" d="M4,12.08,1.67,10.84a2.85,2.85,0,0,0,.29-.3l2.28,1.24A2.85,2.85,0,0,1,4,12.08Z"/><path class="cls-3" d="M3.71,14.6,1.43,13.36c-.26-.42-.62-1-.51-1.45L3.2,13.15C3.09,13.6,3.45,14.18,3.71,14.6Z"/><path class="cls-3" d="M8.75,1.07,11,2.31a1.74,1.74,0,0,0-1-.06l-.39.07-.39.06L9,2.41,6.75,1.17l.25,0,.38-.06L7.77,1A1.74,1.74,0,0,1,8.75,1.07Z"/><path class="cls-3" d="M4.24,11.78,2,10.54A1.67,1.67,0,0,0,2.18,9.4l2.28,1.24A1.67,1.67,0,0,1,4.24,11.78Z"/><path class="cls-3" d="M3.2,13.15.92,11.91c0-.34.43-.75.75-1.07L4,12.08C3.63,12.4,3.23,12.81,3.2,13.15Z"/><path class="cls-3" d="M4.46,10.64,2.18,9.4a1.44,1.44,0,0,1,0-.46l2.28,1.24A1.44,1.44,0,0,0,4.46,10.64Z"/><path class="cls-3" d="M7.09,5.32,4.81,4.08a1.4,1.4,0,0,1,.32-.25c.5-.25.56-.87.61-1.29L8,3.78c0,.42-.11,1-.61,1.29A1.4,1.4,0,0,0,7.09,5.32Z"/><path class="cls-3" d="M8,3.78,5.74,2.54a2.93,2.93,0,0,1,0-.35L8.07,3.43A2.93,2.93,0,0,0,8,3.78Z"/><path class="cls-2" d="M9.19.17l2.28,1.24a2.31,2.31,0,0,0-1.39-.12l-.45.07-.34.06-.24,0L6.77.2,7,.18,7.35.12,7.81.05A2.28,2.28,0,0,1,9.19.17Z"/><path class="cls-3" d="M8.07,3.43,5.79,2.19a1.2,1.2,0,0,1,1-1L9,2.41A1.2,1.2,0,0,0,8.07,3.43Z"/><polygon class="cls-2" points="3.4 11.41 1.12 10.17 1.34 9.95 3.62 11.19 3.4 11.41"/><path class="cls-2" d="M3.61,11.19,1.34,10a1.18,1.18,0,0,1-.05-.35l2.28,1.24A1.86,1.86,0,0,0,3.61,11.19Z"/><path class="cls-2" d="M3.24,15.7,1,14.46A5.21,5.21,0,0,0,.67,14a2.83,2.83,0,0,1-.62-2.12l2.28,1.24A2.83,2.83,0,0,0,3,15.21,5.21,5.21,0,0,1,3.24,15.7Z"/><path class="cls-3" d="M4.47,10.18,2.19,8.94a.82.82,0,0,0-.28-.72L4.19,9.46A.84.84,0,0,1,4.47,10.18Z"/><path class="cls-3" d="M6.09,5.82,3.81,4.58H4a1.74,1.74,0,0,0,.85-.49L7.09,5.32a1.74,1.74,0,0,1-.85.49Z"/><path class="cls-2" d="M7.07,4.24,4.79,3a2.92,2.92,0,0,0,.06-.44L7.13,3.8A2.92,2.92,0,0,1,7.07,4.24Z"/><path class="cls-2" d="M2.33,13.09.05,11.85a3.06,3.06,0,0,1,1.07-1.68L3.4,11.41A3.06,3.06,0,0,0,2.33,13.09Z"/><path class="cls-2" d="M3.57,10.84,1.29,9.6a2.4,2.4,0,0,1,0-.6l2.28,1.24A2.4,2.4,0,0,0,3.57,10.84Z"/><polygon class="cls-3" points="4.19 9.46 1.91 8.22 1.69 8.06 3.97 9.3 4.19 9.46"/><path class="cls-2" d="M7.13,3.8,4.85,2.56c0-.17,0-.33.07-.45L7.2,3.35C7.17,3.47,7.16,3.63,7.13,3.8Z"/><path class="cls-2" d="M6.33,4.86,4.05,3.62s.15-.17.26-.26A2,2,0,0,1,4.79,3L7.07,4.24a2.3,2.3,0,0,0-.49.36C6.48,4.69,6.31,4.84,6.33,4.86Z"/><polygon class="cls-2" points="3.57 10.24 1.29 9 1.13 8.89 3.41 10.13 3.57 10.24"/><path class="cls-2" d="M7.2,3.35,4.92,2.11A2.31,2.31,0,0,1,6.77.2L9.05,1.44A2.31,2.31,0,0,0,7.2,3.35Z"/><polygon class="cls-3" points="5.24 5.6 2.96 4.36 3.81 4.58 6.09 5.82 5.24 5.6"/><polygon class="cls-2" points="5.55 4.66 3.27 3.42 4.05 3.62 6.33 4.86 5.55 4.66"/><path class="cls-3" d="M4,9.3,1.69,8.06c-.32-.24-.73-.53-.78-1L3.19,8.34C3.24,8.77,3.65,9.06,4,9.3Z"/><path class="cls-3" d="M3.19,8.34.91,7.1c-.09-.32.26-1,.52-1.45.13-.26.26-.5.33-.66L4,6.23c-.07.16-.2.4-.33.66C3.45,7.37,3.1,8,3.19,8.34Z"/><path class="cls-3" d="M4,6.23,1.76,5a1.14,1.14,0,0,1,.85-.65.82.82,0,0,1,.35,0L5.24,5.6a.82.82,0,0,0-.35,0A1.14,1.14,0,0,0,4,6.23Z"/><path class="cls-3" d="M15.93,10.77a1.05,1.05,0,0,1,.24,1.29c-.09.17-.21.4-.32.64-.23.51-.56,1.2-1,1.37a.63.63,0,0,1-.24.09,3,3,0,0,1-.91-.14l-.34-.09h-.17a1.71,1.71,0,0,0-.83.49,2.07,2.07,0,0,1-.38.28,1,1,0,0,0-.47.71l-.14.9a1.21,1.21,0,0,1-1,1L9,17.53a.85.85,0,0,1-1-.75L8,16.13l-.06-.29a1.12,1.12,0,0,0-.78-.65A1.09,1.09,0,0,1,6.74,15a.77.77,0,0,0-.49-.1A.73.73,0,0,0,6,15l-.79.44a1.07,1.07,0,0,1-.33.11A.83.83,0,0,1,4,15.15c-.08-.16-.2-.35-.32-.55-.26-.42-.62-1-.51-1.45s.43-.75.75-1.07a2.85,2.85,0,0,0,.29-.3,1.67,1.67,0,0,0,.22-1.14,1.44,1.44,0,0,1,0-.46.84.84,0,0,0-.28-.72L4,9.3c-.32-.24-.73-.53-.78-1s.26-1,.52-1.45c.13-.26.26-.5.33-.66a1.14,1.14,0,0,1,.85-.65.82.82,0,0,1,.35,0l.85.22h.15a1.74,1.74,0,0,0,.85-.49,1.4,1.4,0,0,1,.32-.25c.5-.25.56-.87.61-1.29a2.93,2.93,0,0,1,.05-.35,1.2,1.2,0,0,1,1-1l.24,0,.39-.06.39-.07a1.39,1.39,0,0,1,1.08.14c.26.16.33.69.39,1.13,0,.11,0,.22.05.31a.73.73,0,0,0,.53.59,1,1,0,0,1,.31.15,1.24,1.24,0,0,0,.84.24l.23-.06.79-.43a1.07,1.07,0,0,1,.33-.11.85.85,0,0,1,.87.41l.7,1.23a1.19,1.19,0,0,1-.24,1.39L15.24,8A1.56,1.56,0,0,0,15,9.1a3.61,3.61,0,0,1,0,.46.79.79,0,0,0,.27.72ZM9.72,13.45a4,4,0,0,0,3.29-4A2.87,2.87,0,0,0,9.74,6.3a4,4,0,0,0-3.28,4,2.88,2.88,0,0,0,3.26,3.12"/><path class="cls-2" d="M3.41,10.13,1.13,8.89A2.12,2.12,0,0,1,.05,7.41L2.32,8.65A2.16,2.16,0,0,0,3.41,10.13Z"/><path class="cls-2" d="M2.32,8.65.05,7.41A3.28,3.28,0,0,1,.67,5.24,6.19,6.19,0,0,0,1,4.67L3.24,5.91A6.19,6.19,0,0,1,3,6.48,3.35,3.35,0,0,0,2.32,8.65Z"/><path class="cls-2" d="M16.5,10a2,2,0,0,1,.42,2.52,5.24,5.24,0,0,0-.28.58c-.34.71-.75,1.61-1.47,1.89a1.12,1.12,0,0,1-.5.18A3,3,0,0,1,13.42,15l-.26-.06-.26.25a3.14,3.14,0,0,1-.49.37l-.13.83a2.3,2.3,0,0,1-1.85,2L9,18.49a1.62,1.62,0,0,1-1.85-1.43c-.06-.37-.09-.62-.12-.79a.92.92,0,0,0-.33-.16,2.32,2.32,0,0,1-.48-.23l-.71.39a1.79,1.79,0,0,1-.65.22,1.59,1.59,0,0,1-1.64-.79A5.21,5.21,0,0,0,3,15.21a2.83,2.83,0,0,1-.62-2.12A3.06,3.06,0,0,1,3.4,11.41l.22-.22s0-.22-.05-.35a2.4,2.4,0,0,1,0-.6l-.16-.11A2.16,2.16,0,0,1,2.32,8.65,3.35,3.35,0,0,1,3,6.48a6.19,6.19,0,0,0,.29-.57A2.27,2.27,0,0,1,4.9,4.62a1.43,1.43,0,0,1,.65,0l.78.2s.15-.17.25-.26a2.3,2.3,0,0,1,.49-.36,2.92,2.92,0,0,0,.06-.44c0-.17,0-.33.07-.45A2.31,2.31,0,0,1,9.05,1.44l.24,0,.34-.06.45-.07a1.85,1.85,0,0,1,1.63.3c.5.3.61,1.09.69,1.66l0,.23a2,2,0,0,1,.48.23,1,1,0,0,0,.34.15l.7-.38a1.93,1.93,0,0,1,.66-.23,1.59,1.59,0,0,1,1.63.8l.7,1.2A2.26,2.26,0,0,1,16.5,7.9l-.64.66a1.27,1.27,0,0,1,.05.34,3,3,0,0,1,0,.6Zm-.33,2.11a1.05,1.05,0,0,0-.24-1.29l-.64-.49A.79.79,0,0,1,15,9.56a3.61,3.61,0,0,0,0-.46A1.56,1.56,0,0,1,15.24,8l.69-.72a1.19,1.19,0,0,0,.24-1.39l-.7-1.23a.85.85,0,0,0-.87-.41,1.07,1.07,0,0,0-.33.11l-.79.43-.23.06a1.24,1.24,0,0,1-.84-.24,1,1,0,0,0-.31-.15.73.73,0,0,1-.53-.59c0-.09,0-.2-.05-.31-.06-.44-.13-1-.39-1.13a1.39,1.39,0,0,0-1.08-.14l-.39.07-.39.06L9,2.41a1.2,1.2,0,0,0-1,1A2.93,2.93,0,0,0,8,3.78c0,.42-.11,1-.61,1.29a1.4,1.4,0,0,0-.32.25,1.74,1.74,0,0,1-.85.49H6.09L5.24,5.6a.82.82,0,0,0-.35,0A1.14,1.14,0,0,0,4,6.23c-.07.16-.2.4-.33.66C3.45,7.37,3.1,8,3.19,8.34s.46.72.78,1l.22.16a.84.84,0,0,1,.28.72,1.44,1.44,0,0,0,0,.46,1.67,1.67,0,0,1-.22,1.14,2.85,2.85,0,0,1-.29.3c-.32.32-.72.73-.75,1.07s.25,1,.51,1.45c.12.2.24.39.32.55a.83.83,0,0,0,.85.38,1.07,1.07,0,0,0,.33-.11L6,15a.73.73,0,0,1,.25-.08.77.77,0,0,1,.49.1,1.09,1.09,0,0,0,.37.19,1.12,1.12,0,0,1,.78.65l.08.25.07.69a.85.85,0,0,0,1,.75l1.41-.19a1.21,1.21,0,0,0,1-1l.14-.9A1,1,0,0,1,12,14.7a2.07,2.07,0,0,0,.38-.28,1.71,1.71,0,0,1,.83-.49h.17l.34.09a3,3,0,0,0,.91.14.63.63,0,0,0,.24-.09c.4-.17.73-.86,1-1.37.11-.24.23-.47.32-.64"/><path class="cls-2" d="M3.24,5.91,1,4.67A2.27,2.27,0,0,1,2.62,3.38a1.43,1.43,0,0,1,.65,0L5.55,4.66a1.43,1.43,0,0,0-.65,0A2.27,2.27,0,0,0,3.24,5.91Z"/></g></g></g></svg>